<svg width="101" height="96" viewBox="0 0 101 96" fill="none" xmlns="http://www.w3.org/2000/svg">
<path d="M50.6069 62.1569C50.2946 62.3365 49.9412 62.445 49.5756 62.4626L37.7959 63.0291C34.4525 63.1885 31.5765 62.8635 29.0002 62.0396C23.3633 60.2392 18.6329 56.4871 15.6838 51.469L5.97076 34.9561C4.84936 33.0505 5.10075 30.6167 6.58942 28.8984L19.9264 13.5505C20.7135 12.6309 21.8151 11.9908 23.0188 11.7492L42.9807 7.68532C45.2134 7.22746 47.4683 8.20358 48.5857 10.1082L58.3058 26.6333C61.2533 31.6426 62.2275 37.581 61.0517 43.355C60.5119 46.0037 59.387 48.659 57.6163 51.4735L51.3761 61.4108C51.1835 61.7208 50.9177 61.9748 50.6069 62.1569Z" fill="url(#paint0_linear_3_531)"/>
<g filter="url(#filter0_f_3_531)">
<path d="M45.3978 52.3183C45.186 52.4401 44.9499 52.5199 44.7092 52.5442L36.9524 53.329C34.7509 53.5508 32.8744 53.4581 31.2134 53.0481C27.5791 52.1524 24.613 50.0253 22.864 47.0552L17.1031 37.2821C16.4379 36.1543 16.694 34.6514 17.7359 33.5417L27.068 23.6283C27.6192 23.0347 28.3665 22.6011 29.1661 22.4081L42.4266 19.1736C43.91 18.8097 45.3542 19.3251 46.0168 20.4524L51.7819 30.2328C53.5301 33.1975 53.9478 36.8057 52.9598 40.3926C52.5063 42.0381 51.6682 43.7093 50.4002 45.5022L45.9308 51.8319C45.7927 52.0293 45.6087 52.1951 45.3978 52.3183Z" fill="#F34853"/>
</g>
<g filter="url(#filter1_b_3_531)">
<mask id="path-3-outside-1_3_531" maskUnits="userSpaceOnUse" x="22.9028" y="8.64968" width="79.4592" height="89.3283" fill="black">
<rect fill="white" x="22.9028" y="8.64968" width="79.4592" height="89.3283"/>
<path d="M57.0113 91.0834C56.5376 91.011 56.0808 90.8302 55.6875 90.5443L43.0144 81.3305C39.4186 78.7139 36.7121 75.9804 34.7334 72.9754C30.402 66.4028 28.6423 58.5463 29.7865 50.8502L33.5426 25.5182C33.9755 22.5945 36.272 20.2617 39.2513 19.7063L65.9034 14.778C67.488 14.4726 69.1642 14.7211 70.613 15.4707L94.6854 27.8426C97.3807 29.2229 98.8992 32.1194 98.4631 35.0388L94.704 60.3895C93.5654 68.0749 89.6062 75.0883 83.558 80.1401C80.783 82.4572 77.3964 84.2942 73.2081 85.7598L58.4321 90.9445C57.9732 91.1079 57.4855 91.152 57.0113 91.0834Z"/>
</mask>
<path d="M57.0113 91.0834C56.5376 91.011 56.0808 90.8302 55.6875 90.5443L43.0144 81.3305C39.4186 78.7139 36.7121 75.9804 34.7334 72.9754C30.402 66.4028 28.6423 58.5463 29.7865 50.8502L33.5426 25.5182C33.9755 22.5945 36.272 20.2617 39.2513 19.7063L65.9034 14.778C67.488 14.4726 69.1642 14.7211 70.613 15.4707L94.6854 27.8426C97.3807 29.2229 98.8992 32.1194 98.4631 35.0388L94.704 60.3895C93.5654 68.0749 89.6062 75.0883 83.558 80.1401C80.783 82.4572 77.3964 84.2942 73.2081 85.7598L58.4321 90.9445C57.9732 91.1079 57.4855 91.152 57.0113 91.0834Z" fill="#F5878C" fill-opacity="0.32"/>
<path d="M56.8583 92.0716C57.4042 92.155 57.9153 91.7802 57.9998 91.2344C58.0843 90.6886 57.7102 90.1786 57.1642 90.0952L56.8583 92.0716ZM55.6875 90.5443L56.277 89.7355L56.277 89.7355L55.6875 90.5443ZM43.0144 81.3305L42.4246 82.1391L42.4249 82.1393L43.0144 81.3305ZM34.7334 72.9754L35.5693 72.4247L35.5691 72.4244L34.7334 72.9754ZM29.7865 50.8502L30.7759 50.9953L30.7759 50.9949L29.7865 50.8502ZM33.5426 25.5182L34.5321 25.6629L34.5321 25.6627L33.5426 25.5182ZM39.2513 19.7063L39.0711 18.7233L39.0696 18.7235L39.2513 19.7063ZM65.9034 14.778L66.0836 15.761L66.091 15.7596L65.9034 14.778ZM70.613 15.4707L70.1518 16.3587L70.1542 16.36L70.613 15.4707ZM94.6854 27.8426L94.2266 28.7318L94.2279 28.7324L94.6854 27.8426ZM98.4631 35.0388L97.4737 34.893L97.4736 34.8941L98.4631 35.0388ZM94.704 60.3895L93.7145 60.2448L93.7145 60.2449L94.704 60.3895ZM83.558 80.1401L84.1984 80.9068L84.1986 80.9067L83.558 80.1401ZM73.2081 85.7598L72.8791 84.8164L72.8783 84.8166L73.2081 85.7598ZM58.4321 90.9445L58.1023 90.0013L58.0979 90.0028L58.4321 90.9445ZM57.1564 90.094C56.6098 90.0149 56.1017 90.3938 56.0215 90.9402C55.9414 91.4866 56.3195 91.9937 56.8661 92.0728L57.1564 90.094ZM57.1642 90.0952C56.8405 90.0457 56.5349 89.923 56.277 89.7355L55.098 91.353C55.6267 91.7374 56.2348 91.9764 56.8583 92.0716L57.1642 90.0952ZM56.277 89.7355L43.6038 80.5217L42.4249 82.1393L55.0981 91.3531L56.277 89.7355ZM43.6042 80.522C40.0837 77.9601 37.4689 75.3096 35.5693 72.4247L33.8975 73.526C35.9553 76.6512 38.7536 79.4677 42.4246 82.1391L43.6042 80.522ZM35.5691 72.4244C31.3708 66.0537 29.6685 58.4444 30.7759 50.9953L28.797 50.7051C27.6162 58.6482 29.4333 66.7519 33.8977 73.5264L35.5691 72.4244ZM30.7759 50.9949L34.5321 25.6629L32.5531 25.3735L28.797 50.7055L30.7759 50.9949ZM34.5321 25.6627C34.9001 23.1778 36.8583 21.169 39.4329 20.689L39.0696 18.7235C35.6858 19.3545 33.051 22.0112 32.5531 25.3737L34.5321 25.6627ZM39.4315 20.6893L66.0836 15.761L65.7233 13.795L39.0711 18.7233L39.4315 20.6893ZM66.091 15.7596C67.4507 15.4976 68.8987 15.7103 70.1518 16.3587L71.0742 14.5828C69.4297 13.7319 67.5253 13.4477 65.7158 13.7964L66.091 15.7596ZM70.1542 16.36L94.2266 28.7318L95.1442 26.9534L71.0718 14.5815L70.1542 16.36ZM94.2279 28.7324C96.555 29.9242 97.8445 32.4117 97.4737 34.893L99.4524 35.1846C99.954 31.8271 98.2065 28.5216 95.143 26.9527L94.2279 28.7324ZM97.4736 34.8941L93.7145 60.2448L95.6935 60.5342L99.4525 35.1835L97.4736 34.8941ZM93.7145 60.2449C92.6125 67.6837 88.7798 74.4769 82.9173 79.3736L84.1986 80.9067C90.4326 75.6997 94.5184 68.4662 95.6935 60.5341L93.7145 60.2449ZM82.9175 79.3735C80.2535 81.5978 76.9793 83.3816 72.8791 84.8164L73.5371 86.7033C77.8136 85.2068 81.3124 83.3166 84.1984 80.9068L82.9175 79.3735ZM72.8783 84.8166L58.1023 90.0013L58.7619 91.8876L73.5379 86.703L72.8783 84.8166ZM58.0979 90.0028C57.7973 90.1099 57.4744 90.14 57.1564 90.094L56.8661 92.0728C57.4965 92.164 58.1491 92.1059 58.7662 91.8861L58.0979 90.0028Z" fill="url(#paint1_linear_3_531)" mask="url(#path-3-outside-1_3_531)"/>
</g>
<g filter="url(#filter2_bd_3_531)">
<path d="M58.609 61.3521C57.869 61.2428 57.1706 60.8643 56.6852 60.231L50.4408 52.0783C49.4775 50.813 49.7405 49.0382 51.0315 48.1097C52.3231 47.1774 54.1542 47.4457 55.1219 48.7078L59.6154 54.5713L74.4591 43.8739C75.7545 42.9422 77.5857 43.2105 78.5495 44.472C79.5165 45.7379 79.253 47.5165 77.9626 48.4412L60.7755 60.8292C60.1275 61.2969 59.3491 61.4613 58.609 61.3521Z" fill="url(#paint2_linear_3_531)"/>
<path d="M51.0899 48.1907L51.0898 48.1908C49.8449 49.0862 49.5911 50.7967 50.5203 52.0175C50.5203 52.0175 50.5204 52.0176 50.5204 52.0176L56.7646 60.1701C57.2333 60.7814 57.9077 61.1475 58.6238 61.2532C59.3395 61.3588 60.0914 61.1998 60.7171 60.7482L60.7171 60.7481L77.9042 48.3602L77.9044 48.36C79.1485 47.4684 79.403 45.7542 78.4699 44.5328C77.5391 43.3144 75.7691 43.0548 74.5175 43.9549L51.0899 48.1907ZM51.0899 48.1907C52.3375 47.2902 54.1076 47.5494 55.0424 48.7687L59.5359 54.6322L59.5949 54.7092L59.6738 54.6524L74.5174 43.955L51.0899 48.1907Z" stroke="url(#paint3_linear_3_531)" stroke-opacity="0.5" stroke-width="0.2"/>
</g>
<defs>
<filter id="filter0_f_3_531" x="0.736328" y="3.05811" width="68.7476" height="66.3881" filterUnits="userSpaceOnUse" color-interpolation-filters="sRGB">
<feFlood flood-opacity="0" result="BackgroundImageFix"/>
<feBlend mode="normal" in="SourceGraphic" in2="BackgroundImageFix" result="shape"/>
<feGaussianBlur stdDeviation="8" result="effect1_foregroundBlur_3_531"/>
</filter>
<filter id="filter1_b_3_531" x="4.44531" y="-10.3491" width="119.092" height="126.463" filterUnits="userSpaceOnUse" color-interpolation-filters="sRGB">
<feFlood flood-opacity="0" result="BackgroundImageFix"/>
<feGaussianBlur in="BackgroundImageFix" stdDeviation="12"/>
<feComposite in2="SourceAlpha" operator="in" result="effect1_backgroundBlur_3_531"/>
<feBlend mode="normal" in="SourceGraphic" in2="effect1_backgroundBlur_3_531" result="shape"/>
</filter>
<filter id="filter2_bd_3_531" x="34.8608" y="28.3186" width="59.2715" height="48.0659" filterUnits="userSpaceOnUse" color-interpolation-filters="sRGB">
<feFlood flood-opacity="0" result="BackgroundImageFix"/>
<feGaussianBlur in="BackgroundImageFix" stdDeviation="7.5"/>
<feComposite in2="SourceAlpha" operator="in" result="effect1_backgroundBlur_3_531"/>
<feColorMatrix in="SourceAlpha" type="matrix" values="0 0 0 0 0 0 0 0 0 0 0 0 0 0 0 0 0 0 127 0" result="hardAlpha"/>
<feOffset dx="5" dy="5"/>
<feGaussianBlur stdDeviation="5"/>
<feColorMatrix type="matrix" values="0 0 0 0 0.94902 0 0 0 0 0.376471 0 0 0 0 0.407843 0 0 0 0.54 0"/>
<feBlend mode="normal" in2="effect1_backgroundBlur_3_531" result="effect2_dropShadow_3_531"/>
<feBlend mode="normal" in="SourceGraphic" in2="effect2_dropShadow_3_531" result="shape"/>
</filter>
<linearGradient id="paint0_linear_3_531" x1="42.8698" y1="-5.26766e-05" x2="27.846" y2="56.2628" gradientUnits="userSpaceOnUse">
<stop stop-color="#FAA1A5"/>
<stop offset="1" stop-color="#ED6368"/>
</linearGradient>
<linearGradient id="paint1_linear_3_531" x1="44.9524" y1="20.2567" x2="86.5543" y2="80.3065" gradientUnits="userSpaceOnUse">
<stop stop-color="white" stop-opacity="0.25"/>
<stop offset="1" stop-color="white" stop-opacity="0"/>
</linearGradient>
<linearGradient id="paint2_linear_3_531" x1="76.9808" y1="47.1522" x2="45.5827" y2="43.7301" gradientUnits="userSpaceOnUse">
<stop stop-color="white"/>
<stop offset="1" stop-color="white" stop-opacity="0.2"/>
</linearGradient>
<linearGradient id="paint3_linear_3_531" x1="53.4753" y1="46.7752" x2="77.2363" y2="50.6394" gradientUnits="userSpaceOnUse">
<stop stop-color="white"/>
<stop offset="1" stop-color="white" stop-opacity="0"/>
</linearGradient>
</defs>
</svg>
