<svg width="102" height="97" viewBox="0 0 102 97" fill="none" xmlns="http://www.w3.org/2000/svg">
<path d="M86.3031 11.5548L58.9475 4.21338C49.0249 1.55045 41.6908 5.81906 39.0233 15.7899L29.9888 49.5601C27.2776 59.6944 31.5331 66.9332 41.4557 69.5961L68.8113 76.9376C78.8939 79.6434 86.0298 75.4618 88.741 65.3274L97.7755 31.5573C100.443 21.5864 96.3857 14.2607 86.3031 11.5548Z" fill="url(#paint0_linear_3_525)"/>
<g opacity="0.5" filter="url(#filter0_f_3_525)">
<path d="M79.1559 20.8025L60.5183 15.8007C53.7579 13.9864 48.7611 16.8946 46.9437 23.6879L40.7885 46.6958C38.9413 53.6004 41.8406 58.5323 48.6009 60.3466L67.2386 65.3483C74.108 67.1919 78.9697 64.3429 80.8169 57.4383L86.9722 34.4303C88.7896 27.6371 86.0253 22.646 79.1559 20.8025Z" fill="#61BC81"/>
</g>
<g filter="url(#filter1_b_3_525)">
<mask id="path-3-outside-1_3_525" maskUnits="userSpaceOnUse" x="0" y="17.1193" width="80" height="80" fill="black">
<rect fill="white" y="17.1193" width="80" height="80"/>
<path d="M56.753 18.1193H23.0446C9.86449 18.1193 1 27.3871 1 41.172V72.9863C1 86.7322 9.86449 96.0001 23.0446 96.0001H56.753C69.9331 96.0001 78.7587 86.7322 78.7587 72.9863V41.172C78.7587 27.3871 69.9331 18.1193 56.753 18.1193Z"/>
</mask>
<path d="M56.753 18.1193H23.0446C9.86449 18.1193 1 27.3871 1 41.172V72.9863C1 86.7322 9.86449 96.0001 23.0446 96.0001H56.753C69.9331 96.0001 78.7587 86.7322 78.7587 72.9863V41.172C78.7587 27.3871 69.9331 18.1193 56.753 18.1193Z" fill="#9CECB8" fill-opacity="0.51"/>
<path d="M56.753 19.1193C57.3052 19.1193 57.753 18.6715 57.753 18.1193C57.753 17.567 57.3052 17.1193 56.753 17.1193V19.1193ZM56.753 17.1193C56.2007 17.1193 55.753 17.567 55.753 18.1193C55.753 18.6715 56.2007 19.1193 56.753 19.1193V17.1193ZM56.753 17.1193H23.0446V19.1193H56.753V17.1193ZM23.0446 17.1193C16.2113 17.1193 10.4289 19.5273 6.35704 23.7851C2.28889 28.0391 0 34.0632 0 41.172H2C2 34.4958 4.14335 28.9936 7.80247 25.1674C11.4579 21.3451 16.6978 19.1193 23.0446 19.1193V17.1193ZM0 41.172V72.9863H2V41.172H0ZM0 72.9863C0 80.0763 2.28934 86.0907 6.35746 90.3395C10.4292 94.592 16.2113 97.0001 23.0446 97.0001V95.0001C16.6978 95.0001 11.4576 92.7742 7.80205 88.9563C4.1429 85.1347 2 79.6422 2 72.9863H0ZM23.0446 97.0001H56.753V95.0001H23.0446V97.0001ZM56.753 97.0001C63.5864 97.0001 69.3593 94.5919 73.4215 90.3386C77.4798 86.0894 79.7587 80.0751 79.7587 72.9863H77.7587C77.7587 79.6434 75.6247 85.136 71.9752 88.9572C68.3296 92.7743 63.0996 95.0001 56.753 95.0001V97.0001ZM79.7587 72.9863V41.172H77.7587V72.9863H79.7587ZM79.7587 41.172C79.7587 34.0644 77.4803 28.0404 73.4219 23.786C69.3596 19.5275 63.5865 17.1193 56.753 17.1193V19.1193C63.0995 19.1193 68.3293 21.3449 71.9748 25.1665C75.6243 28.9923 77.7587 34.4946 77.7587 41.172H79.7587Z" fill="url(#paint1_linear_3_525)" mask="url(#path-3-outside-1_3_525)"/>
</g>
<g filter="url(#filter2_bd_3_525)">
<mask id="path-5-inside-2_3_525" fill="white">
<path d="M35.2642 69.7073C34.3933 69.7073 33.5224 69.3763 32.8576 68.7104L23.6315 59.4699C22.3019 58.1381 22.3019 55.9808 23.6315 54.6529C24.9612 53.3212 27.1112 53.3173 28.4409 54.649L35.2642 61.4831L51.3136 45.4085C52.6433 44.0767 54.7933 44.0767 56.123 45.4085C57.4527 46.7403 57.4527 48.8975 56.123 50.2293L37.6709 68.7104C37.006 69.3763 36.1351 69.7073 35.2642 69.7073Z"/>
</mask>
<path d="M35.2642 69.7073C34.3933 69.7073 33.5224 69.3763 32.8576 68.7104L23.6315 59.4699C22.3019 58.1381 22.3019 55.9808 23.6315 54.6529C24.9612 53.3212 27.1112 53.3173 28.4409 54.649L35.2642 61.4831L51.3136 45.4085C52.6433 44.0767 54.7933 44.0767 56.123 45.4085C57.4527 46.7403 57.4527 48.8975 56.123 50.2293L37.6709 68.7104C37.006 69.3763 36.1351 69.7073 35.2642 69.7073Z" fill="url(#paint2_linear_3_525)"/>
<path d="M23.6315 54.6529L23.7729 54.7945L23.7731 54.7943L23.6315 54.6529ZM35.2642 61.4831L35.1227 61.6244L35.2642 61.7662L35.4058 61.6244L35.2642 61.4831ZM56.123 50.2293L55.9815 50.088L56.123 50.2293ZM37.6709 68.7104L37.8124 68.8517L37.6709 68.7104ZM35.2642 69.5073C34.4441 69.5073 33.6248 69.1958 32.9991 68.5691L32.7161 68.8517C33.4201 69.5568 34.3426 69.9073 35.2642 69.9073V69.5073ZM32.9991 68.5691L23.7731 59.3286L23.49 59.6112L32.7161 68.8517L32.9991 68.5691ZM23.7731 59.3286C22.5212 58.0748 22.5215 56.0441 23.7729 54.7945L23.4902 54.5114C22.0822 55.9175 22.0825 58.2015 23.49 59.6112L23.7731 59.3286ZM23.7731 54.7943C25.0249 53.5404 27.0481 53.5371 28.2994 54.7904L28.5824 54.5077C27.1743 53.0974 24.8975 53.1019 23.49 54.5116L23.7731 54.7943ZM28.2994 54.7904L35.1227 61.6244L35.4058 61.3418L28.5824 54.5077L28.2994 54.7904ZM35.4058 61.6244L51.4552 45.5498L51.1721 45.2672L35.1227 61.3418L35.4058 61.6244ZM51.4552 45.5498C52.7067 44.2963 54.7299 44.2963 55.9815 45.5498L56.2645 45.2672C54.8567 43.8572 52.5799 43.8572 51.1721 45.2672L51.4552 45.5498ZM55.9815 45.5498C57.2332 46.8035 57.2332 48.8343 55.9815 50.088L56.2645 50.3706C57.6722 48.9608 57.6722 46.677 56.2645 45.2672L55.9815 45.5498ZM55.9815 50.088L37.5293 68.5691L37.8124 68.8517L56.2645 50.3706L55.9815 50.088ZM37.5293 68.5691C36.9037 69.1958 36.0844 69.5073 35.2642 69.5073V69.9073C36.1858 69.9073 37.1084 69.5568 37.8124 68.8517L37.5293 68.5691Z" fill="url(#paint3_linear_3_525)" fill-opacity="0.5" mask="url(#path-5-inside-2_3_525)"/>
</g>
<defs>
<filter id="filter0_f_3_525" x="26.2427" y="1.27185" width="75.2739" height="78.6246" filterUnits="userSpaceOnUse" color-interpolation-filters="sRGB">
<feFlood flood-opacity="0" result="BackgroundImageFix"/>
<feBlend mode="normal" in="SourceGraphic" in2="BackgroundImageFix" result="shape"/>
<feGaussianBlur stdDeviation="7" result="effect1_foregroundBlur_3_525"/>
</filter>
<filter id="filter1_b_3_525" x="-24" y="-6.88074" width="127.759" height="127.881" filterUnits="userSpaceOnUse" color-interpolation-filters="sRGB">
<feFlood flood-opacity="0" result="BackgroundImageFix"/>
<feGaussianBlur in="BackgroundImageFix" stdDeviation="12"/>
<feComposite in2="SourceAlpha" operator="in" result="effect1_backgroundBlur_3_525"/>
<feBlend mode="normal" in="SourceGraphic" in2="effect1_backgroundBlur_3_525" result="shape"/>
</filter>
<filter id="filter2_bd_3_525" x="7.63428" y="29.4097" width="64.4858" height="55.2976" filterUnits="userSpaceOnUse" color-interpolation-filters="sRGB">
<feFlood flood-opacity="0" result="BackgroundImageFix"/>
<feGaussianBlur in="BackgroundImageFix" stdDeviation="7.5"/>
<feComposite in2="SourceAlpha" operator="in" result="effect1_backgroundBlur_3_525"/>
<feColorMatrix in="SourceAlpha" type="matrix" values="0 0 0 0 0 0 0 0 0 0 0 0 0 0 0 0 0 0 127 0" result="hardAlpha"/>
<feOffset dx="5" dy="5"/>
<feGaussianBlur stdDeviation="5"/>
<feColorMatrix type="matrix" values="0 0 0 0 0.454902 0 0 0 0 0.807843 0 0 0 0 0.576471 0 0 0 0.67 0"/>
<feBlend mode="normal" in2="effect1_backgroundBlur_3_525" result="effect2_dropShadow_3_525"/>
<feBlend mode="normal" in="SourceGraphic" in2="effect2_dropShadow_3_525" result="shape"/>
</filter>
<linearGradient id="paint0_linear_3_525" x1="102" y1="15.7673" x2="42.2914" y2="52.2532" gradientUnits="userSpaceOnUse">
<stop stop-color="#93EDB2"/>
<stop offset="1" stop-color="#61BC81"/>
</linearGradient>
<linearGradient id="paint1_linear_3_525" x1="13.3779" y1="27.1925" x2="63.0739" y2="88.6457" gradientUnits="userSpaceOnUse">
<stop stop-color="white" stop-opacity="0.25"/>
<stop offset="1" stop-color="white" stop-opacity="0"/>
</linearGradient>
<linearGradient id="paint2_linear_3_525" x1="54.6752" y1="48.9779" x2="16.2961" y2="50.6837" gradientUnits="userSpaceOnUse">
<stop stop-color="white"/>
<stop offset="1" stop-color="white" stop-opacity="0.2"/>
</linearGradient>
<linearGradient id="paint3_linear_3_525" x1="26.3492" y1="52.8958" x2="55.6318" y2="53.1162" gradientUnits="userSpaceOnUse">
<stop stop-color="white"/>
<stop offset="1" stop-color="white" stop-opacity="0"/>
</linearGradient>
</defs>
</svg>
